<?xml version="1.0" encoding="utf-8"?>
<!-- Designed by Vexels.com - 2016 All Rights Reserved - https://vexels.com/terms-and-conditions/  -->

<svg version="1.0" id="Capa_1" xmlns="http://www.w3.org/2000/svg" xmlns:xlink="http://www.w3.org/1999/xlink" x="0px" y="0px"
	 width="1200px" height="1200px" viewBox="0 0 1200 1200" enable-background="new 0 0 1200 1200" xml:space="preserve">
<g>
	<path fill="#F5F4ED" d="M829.319,225.167c-19.635,2.519-53.469,11.652-78.669,43.877c-22.717-5.738-45.946-8.637-69.374-8.637
		H510.322c-20.104,0-40.407,2.219-60.52,6.63c-18.875-23.428-45.702-38.104-77.224-41.87
		C256.303,210.633,71.973,322.186,71.973,431.14v355.104c0,105.339,94.132,191.023,209.801,191.023
		c98.313,0,183.009-63.247,204.496-148.251c8.293,0.778,16.246,1.158,24.052,1.158h170.955c11.206,0,22.68-0.742,34.297-2.166
		c21.055,85.641,105.665,149.259,204.651,149.259c115.77,0,209.937-85.685,209.937-191.023V431.14
		C1130.162,321.745,944.913,210.262,829.319,225.167z"/>
	<g>
		<path fill="#414042" d="M827.185,224.08c-19.636,2.515-53.47,11.643-78.67,43.873c-22.717-5.738-45.946-8.633-69.374-8.633
			H508.186c-20.104,0-40.406,2.214-60.519,6.626c-18.875-23.424-45.703-38.104-77.225-41.865
			C254.169,209.541,69.838,321.099,69.838,430.044v355.05c0,105.32,94.133,190.988,209.801,190.988
			c98.314,0,183.009-63.239,204.497-148.225c8.293,0.779,16.245,1.159,24.051,1.159h170.954c11.206,0,22.681-0.743,34.298-2.166
			c21.055,85.623,105.665,149.233,204.651,149.233c115.77,0,209.938-85.667,209.938-190.988v-355.05
			C1128.028,320.653,942.778,209.17,827.185,224.08z M1075.867,785.095c0,76.561-70.766,138.818-157.777,138.818
			c-82.485,0-151.54-56.759-157.172-129.235l-2.316-29.785l-29.237,6.304c-17.187,3.749-34.064,5.641-50.225,5.641H508.186
			c-12.598,0-26.018-1.256-40.955-3.864l-27.915-4.818l-2.546,28.185c-6.419,71.53-75.426,127.573-157.132,127.573
			c-86.936,0-157.639-62.257-157.639-138.818v-355.05c0-65.201,132.103-155.001,228.008-155.001c4.889,0,9.641,0.243,14.19,0.787
			c22.212,2.683,38.846,13.65,49.446,32.569l10.052,18.031l19.901-5.702c21.39-6.122,43.129-9.248,64.59-9.248h170.954
			c24.582,0,48.96,3.912,72.468,11.657l20.776,6.798l10.313-19.229c13.513-25.169,35.249-32.874,51.144-34.877
			c4.752-0.606,9.743-0.924,14.87-0.924c95.529,0,227.155,89.902,227.155,155.139V785.095z"/>
		<path fill="#414042" d="M398.021,525.975h-55.693v-49.986c0-18.406-16.638-33.316-37.219-33.316
			c-20.515,0-37.153,14.909-37.153,33.316v49.986h-55.755c-20.449,0-37.158,14.946-37.158,33.387
			c0,18.442,16.709,33.392,37.158,33.392h55.755v49.986c0,18.416,16.638,33.329,37.153,33.329c20.582,0,37.219-14.914,37.219-33.329
			v-49.986h55.693c20.648,0,37.215-14.95,37.215-33.392C435.236,540.921,418.669,525.975,398.021,525.975z"/>
		<path fill="#414042" d="M792.413,529.029c-23.49,0-42.369,17.019-42.369,38.007c0,21.023,18.879,38.112,42.369,38.112
			c23.433,0,42.449-17.089,42.449-38.112C834.863,546.048,815.846,529.029,792.413,529.029z"/>
		<path fill="#414042" d="M890.586,617.066c-23.331,0-42.414,17.125-42.414,38.148c0,20.953,19.083,37.971,42.414,37.971
			c23.503,0,42.448-17.018,42.448-37.971C933.035,634.191,914.09,617.066,890.586,617.066z"/>
		<path fill="#414042" d="M890.586,440.945c-23.331,0-42.414,17.01-42.414,38.063c0,20.953,19.083,37.967,42.414,37.967
			c23.503,0,42.448-17.014,42.448-37.967C933.035,457.955,914.09,440.945,890.586,440.945z"/>
		<path fill="#414042" d="M988.865,529.029c-23.432,0-42.448,17.019-42.448,38.007c0,21.023,19.017,38.112,42.448,38.112
			c23.296,0,42.379-17.089,42.379-38.112C1031.243,546.048,1012.161,529.029,988.865,529.029z"/>
	</g>
</g>
</svg>
