<?xml version="1.0" encoding="utf-8"?>
<!-- Generator: Adobe Illustrator 27.5.0, SVG Export Plug-In . SVG Version: 6.00 Build 0)  -->
<svg version="1.1" id="Layer_1" xmlns="http://www.w3.org/2000/svg" xmlns:xlink="http://www.w3.org/1999/xlink" x="0px" y="0px"
	 viewBox="0 0 5657 4000" style="enable-background:new 0 0 5657 4000;" xml:space="preserve">
<g>
	<rect style="fill-rule:evenodd;clip-rule:evenodd;fill:#01052D;" width="5657" height="4000"/>
	<path style="fill:#0131B9;" d="M4025.555,3918.651v37.589l-18.908,17.443h-40.731L4025.555,3918.651z M3964.905,3898.392h40.731
		l-81.59,75.291h-40.735L3964.905,3898.392z M3882.3,3898.392h40.731l-81.59,75.291h-40.731L3882.3,3898.392z M3799.699,3898.392
		h40.731l-81.593,75.291h-40.73L3799.699,3898.392z M3717.094,3898.392h40.731l-81.589,75.291h-40.731L3717.094,3898.392z
		 M3634.49,3898.392h40.736l-81.593,75.291h-40.731L3634.49,3898.392z M3551.89,3898.392h40.731l-81.59,75.291h-40.735
		L3551.89,3898.392z M3469.285,3898.392h40.731l-81.59,75.291h-40.731L3469.285,3898.392z M3386.684,3898.392h40.731l-81.592,75.291
		h-40.731L3386.684,3898.392z M3304.079,3898.392h40.731l-81.589,75.291h-40.735L3304.079,3898.392z M3221.475,3898.392h40.736
		l-81.593,75.291h-40.731L3221.475,3898.392z M3138.875,3898.392h40.731l-81.593,75.291h-40.731L3138.875,3898.392z
		 M3056.27,3898.392h40.731l-81.589,75.291h-40.731L3056.27,3898.392z M2973.665,3898.392h40.735l-81.592,75.291h-40.731
		L2973.665,3898.392z M2891.064,3898.392h40.731l-81.589,75.291h-40.735L2891.064,3898.392z M2808.46,3898.392h40.731
		l-81.589,75.291h-40.731L2808.46,3898.392z M2725.86,3898.392h40.731l-81.593,75.291h-40.743L2725.86,3898.392z M2643.255,3898.392
		h40.731l-81.6,75.291h-40.731L2643.255,3898.392z M2560.65,3898.392h40.735l-81.604,75.291h-40.731L2560.65,3898.392z
		 M2478.049,3898.392h40.731l-81.6,75.291h-40.735L2478.049,3898.392z M2395.446,3898.392h40.731l-81.601,75.291h-40.731
		L2395.446,3898.392z M2312.833,3898.392h40.743l-81.604,75.291h-40.731L2312.833,3898.392z M2230.228,3898.392h40.731
		l-81.589,75.291h-40.731L2230.228,3898.392z M2147.628,3898.392h40.731l-81.593,75.291h-40.731L2147.628,3898.392z
		 M2065.024,3898.392h40.731l-81.59,75.291h-40.735L2065.024,3898.392z M1982.419,3898.392h40.735l-81.593,75.291h-40.731
		L1982.419,3898.392z M1899.818,3898.392h40.731l-81.592,75.291h-40.731L1899.818,3898.392z M1817.213,3898.392h40.731
		l-81.589,75.291h-40.731L1817.213,3898.392z M1734.609,3898.392h40.736l-81.593,75.291h-40.731L1734.609,3898.392z
		 M1631.467,3898.392h61.272l-61.272,56.541V3898.392z"/>
	<g>
		<defs>
			<path id="SVGID_1_" d="M2239.402,1872.778l-97.354,127.226h-679.214l348.168-455.034
				C2119.123,1400.763,2298.039,1537.675,2239.402,1872.778"/>
		</defs>
		<clipPath id="SVGID_00000173162734490559582770000010887373795415082881_">
			<use xlink:href="#SVGID_1_"  style="overflow:visible;"/>
		</clipPath>
		
			<linearGradient id="SVGID_00000104671203833980388380000016537890191288232367_" gradientUnits="userSpaceOnUse" x1="1609.42" y1="2124.4531" x2="2626.4124" y2="533.1254">
			<stop  offset="0" style="stop-color:#230094"/>
			<stop  offset="1" style="stop-color:#E61EFF"/>
		</linearGradient>
		
			<rect x="1462.833" y="1400.763" style="clip-path:url(#SVGID_00000173162734490559582770000010887373795415082881_);fill:url(#SVGID_00000104671203833980388380000016537890191288232367_);" width="835.206" height="599.241"/>
	</g>
	<g>
		<defs>
			<path id="SVGID_00000173121243549875833280000015677452320008601001_" d="M2220.573,1331.254l-511.701,668.75h-679.211
				l762.511-996.543C2100.294,859.242,2279.207,996.151,2220.573,1331.254"/>
		</defs>
		<clipPath id="SVGID_00000159438747896925010380000011754032327836036276_">
			<use xlink:href="#SVGID_00000173121243549875833280000015677452320008601001_"  style="overflow:visible;"/>
		</clipPath>
		
			<linearGradient id="SVGID_00000088848561257200073390000007138498329667820200_" gradientUnits="userSpaceOnUse" x1="985.2999" y1="2131.1074" x2="2539.4312" y2="501.8385">
			<stop  offset="0" style="stop-color:#230094"/>
			<stop  offset="1" style="stop-color:#E61EFF"/>
		</linearGradient>
		
			<rect x="1029.661" y="859.242" style="clip-path:url(#SVGID_00000159438747896925010380000011754032327836036276_);fill:url(#SVGID_00000088848561257200073390000007138498329667820200_);" width="1249.546" height="1140.762"/>
	</g>
	<g>
		<defs>
			<path id="SVGID_00000099646071112267488990000000996658952253575578_" d="M706.942,1284.176l-547.726,715.828H79.587
				l553.61-723.517c-3.689-20.865-16.303-30.421-37.379-28.457L20.443,2000.004H0v-679.59l278.553-364.046
				C586.668,812.165,765.58,949.05,706.942,1284.176"/>
		</defs>
		<clipPath id="SVGID_00000135649831143432835240000017587081379108826763_">
			<use xlink:href="#SVGID_00000099646071112267488990000000996658952253575578_"  style="overflow:visible;"/>
		</clipPath>
		
			<linearGradient id="SVGID_00000072962493965918333600000008852870869119005884_" gradientUnits="userSpaceOnUse" x1="439.1875" y1="1341.038" x2="1729.5918" y2="-147.2592">
			<stop  offset="0" style="stop-color:#003780"/>
			<stop  offset="1" style="stop-color:#29C5FF"/>
		</linearGradient>
		
			<rect y="812.165" style="clip-path:url(#SVGID_00000135649831143432835240000017587081379108826763_);fill:url(#SVGID_00000072962493965918333600000008852870869119005884_);" width="765.58" height="1187.839"/>
	</g>
	<g>
		<defs>
			<path id="SVGID_00000054245944141177432570000009261852197174569863_" d="M744.564,600.42l-617.108,806.492
				c-21.079,1.941-33.69-7.592-37.379-28.461L707.166,571.96C728.264,570.01,740.856,579.564,744.564,600.42 M857.641,568.418
				L0,1689.271V801.619l429.24-560.996C737.343,96.406,916.256,233.317,857.641,568.418z"/>
		</defs>
		<clipPath id="SVGID_00000127028681376718822980000011230404022595825325_">
			<use xlink:href="#SVGID_00000054245944141177432570000009261852197174569863_"  style="overflow:visible;"/>
		</clipPath>
		
			<linearGradient id="SVGID_00000183206603184550093830000010912610109508487833_" gradientUnits="userSpaceOnUse" x1="-85.3738" y1="1440.454" x2="1241.8508" y2="103.1843">
			<stop  offset="0" style="stop-color:#003780"/>
			<stop  offset="1" style="stop-color:#29C5FF"/>
		</linearGradient>
		
			<rect y="96.406" style="clip-path:url(#SVGID_00000127028681376718822980000011230404022595825325_);fill:url(#SVGID_00000183206603184550093830000010912610109508487833_);" width="916.256" height="1592.865"/>
	</g>
	<path d="M700.417,304.712l-14.131-10.819l10.798-14.129l14.128,10.819L700.417,304.712z M678.791,332.97l-14.139-10.816
		l10.817-14.131l14.127,10.821L678.791,332.97z M657.153,361.229l-14.127-10.816l10.817-14.131l14.131,10.821L657.153,361.229z
		 M635.538,389.489l-14.128-10.816l10.817-14.131l14.127,10.821L635.538,389.489z M613.911,417.76l-14.127-10.832l10.817-14.129
		l14.131,10.819L613.911,417.76z M592.296,446.016l-14.128-10.816l10.817-14.129l14.132,10.818L592.296,446.016z M570.669,474.276
		l-14.127-10.816l10.806-14.129l14.132,10.818L570.669,474.276z M549.054,502.535l-14.127-10.816l10.798-14.131l14.127,10.821
		L549.054,502.535z M527.431,530.795l-14.132-10.816l10.81-14.133l14.127,10.823L527.431,530.795z M505.793,559.066l-14.132-10.828
		l10.82-14.133l14.129,10.818L505.793,559.066z M484.177,587.326l-14.131-10.821l10.821-14.129l14.127,10.819L484.177,587.326z
		 M462.551,615.581l-14.127-10.816l10.817-14.129l14.127,10.818L462.551,615.581z M440.935,643.841l-14.127-10.816l10.817-14.133
		l14.127,10.823L440.935,643.841z M419.309,672.101l-14.127-10.816l10.806-14.133l14.132,10.821L419.309,672.101z M397.694,700.372
		l-14.128-10.828l10.796-14.133l14.131,10.821L397.694,700.372z M376.066,728.632l-14.127-10.821l10.806-14.129l14.132,10.818
		L376.066,728.632z M354.429,756.892l-14.127-10.821l10.817-14.129l14.131,10.819L354.429,756.892z M332.814,785.147l-14.128-10.816
		l10.817-14.129l14.132,10.816L332.814,785.147z M311.191,813.407l-14.132-10.816l10.82-14.133l14.129,10.821L311.191,813.407z
		 M289.575,841.678l-14.131-10.819l10.82-14.142l14.127,10.83L289.575,841.678z M267.948,869.938l-14.132-10.821l10.799-14.129
		l14.139,10.816L267.948,869.938z M246.332,898.216l-14.131-10.839L243,873.248l14.128,10.839L246.332,898.216z M224.695,926.476
		l-14.139-10.819l10.828-14.149l14.127,10.839L224.695,926.476z M203.039,954.758l-14.132-10.823l10.829-14.127l14.131,10.816
		L203.039,954.758z M181.39,983.035l-14.128-10.817l10.817-14.131l14.14,10.821L181.39,983.035z M159.752,1011.318l-14.128-10.821
		l10.817-14.129l14.132,10.817L159.752,1011.318z M138.118,1039.596l-14.132-10.817l10.821-14.139l14.128,10.829L138.118,1039.596z
		 M116.481,1067.878l-14.128-10.829l10.817-14.132l14.128,10.817L116.481,1067.878z M94.842,1096.145l-14.127-10.817l10.817-14.128
		l14.132,10.817L94.842,1096.145z M73.197,1124.427l-14.132-10.817l10.82-14.132l14.14,10.817L73.197,1124.427z M51.56,1152.705
		l-14.128-10.818l10.817-14.128l14.128,10.816L51.56,1152.705z M29.921,1180.987l-14.127-10.817l10.817-14.131l14.132,10.821
		L29.921,1180.987z M8.265,1209.266L0,1202.942v-12.149l4.955-6.473l14.127,10.817L8.265,1209.266z M722.033,276.454l-14.132-10.832
		l10.81-14.127l14.127,10.816L722.033,276.454z"/>
	<path style="fill:#4A1877;" d="M1584.818,409.451L367.801,2000.004H236.683l1265.27-1653.63
		C1548.685,342.051,1576.638,363.225,1584.818,409.451"/>
	<path d="M1834.369,1118.203l-14.127-10.816l10.794-14.129l14.131,10.817L1834.369,1118.203z M1812.731,1146.463l-14.139-10.817
		l10.817-14.128l14.142,10.817L1812.731,1146.463z M1791.104,1174.745l-14.127-10.84l10.817-14.131l14.132,10.839L1791.104,1174.745
		z M1769.489,1203.005l-14.139-10.822l10.828-14.139l14.131,10.829L1769.489,1203.005z M1747.866,1231.272l-14.132-10.817
		l10.822-14.139l14.127,10.829L1747.866,1231.272z M1726.25,1259.532l-14.142-10.817l10.809-14.132l14.128,10.822L1726.25,1259.532z
		 M1704.624,1287.792l-14.131-10.817l10.798-14.132l14.127,10.821L1704.624,1287.792z M1683.009,1316.051l-14.132-10.817
		l10.799-14.132l14.127,10.821L1683.009,1316.051z M1661.36,1344.31l-14.129-10.821l10.817-14.128l14.139,10.817L1661.36,1344.31z
		 M1639.744,1372.578l-14.127-10.817l10.817-14.139l14.127,10.829L1639.744,1372.578z M1618.118,1400.838l-14.127-10.818
		l10.816-14.128l14.14,10.816L1618.118,1400.838z M1596.502,1429.097l-14.127-10.817l10.817-14.132l14.132,10.821L1596.502,1429.097
		z M1574.887,1457.356l-14.139-10.817l10.806-14.131l14.131,10.821L1574.887,1457.356z M1553.26,1485.627l-14.128-10.829
		l10.799-14.131l14.127,10.817L1553.26,1485.627z M1531.644,1513.887l-14.139-10.821l10.809-14.129l14.128,10.817L1531.644,1513.887
		z M1509.999,1542.144l-14.131-10.817l10.821-14.129l14.127,10.817L1509.999,1542.144z M1488.384,1570.402l-14.132-10.817
		l10.822-14.131l14.127,10.821L1488.384,1570.402z M1466.758,1598.662l-14.129-10.817l10.817-14.131l14.139,10.821
		L1466.758,1598.662z M1445.142,1626.933l-14.132-10.829l10.822-14.131l14.127,10.821L1445.142,1626.933z M1423.515,1655.193
		l-14.128-10.821l10.807-14.129l14.15,10.817L1423.515,1655.193z M1401.899,1683.448l-14.127-10.817l10.794-14.128l14.132,10.817
		L1401.899,1683.448z M1380.284,1711.708l-14.139-10.817l10.806-14.128l14.131,10.817L1380.284,1711.708z M1358.635,1739.991
		l-14.127-10.817l10.816-14.154l14.132,10.821L1358.635,1739.991z M1336.978,1768.269l-14.127-10.817l10.817-14.15l14.139,10.817
		L1336.978,1768.269z M1315.341,1796.55l-14.127-10.816l10.817-14.155l14.131,10.821L1315.341,1796.55z M1293.707,1824.829
		l-14.131-10.817l10.82-14.15l14.127,10.817L1293.707,1824.829z M1272.069,1853.111l-14.127-10.817l10.817-14.154l14.127,10.821
		L1272.069,1853.111z M1250.431,1881.389l-14.127-10.817l10.817-14.149l14.131,10.816L1250.431,1881.389z M1228.786,1909.671
		l-14.131-10.817l10.82-14.15l14.139,10.817L1228.786,1909.671z M1207.148,1937.949l-14.127-10.829l10.817-14.139l14.127,10.817
		L1207.148,1937.949z M1185.51,1966.22l-14.127-10.817l10.817-14.139l14.131,10.829L1185.51,1966.22z M1163.854,1994.502
		l-14.127-10.821l10.817-14.15l14.15,10.84L1163.854,1994.502z M1137.239,2000.004l1.666-2.173l2.857,2.173H1137.239z
		 M1855.984,1089.948l-14.127-10.821l10.795-14.129l14.143,10.817L1855.984,1089.948z"/>
	<g>
		<defs>
			<path id="SVGID_00000080921460182015595460000003179511091439194807_" d="M429.337,2000.004l178.828-233.707
				c277.43-129.852,450.089-31.748,438.922,233.707H429.337z"/>
		</defs>
		<clipPath id="SVGID_00000153679006813159282410000014357210493681426826_">
			<use xlink:href="#SVGID_00000080921460182015595460000003179511091439194807_"  style="overflow:visible;"/>
		</clipPath>
		
			<linearGradient id="SVGID_00000095333144712044935750000013332523315642462380_" gradientUnits="userSpaceOnUse" x1="361.2988" y1="2311.6133" x2="1043.8789" y2="1431.1414">
			<stop  offset="0" style="stop-color:#230094"/>
			<stop  offset="1" style="stop-color:#E61EFF"/>
		</linearGradient>
		
			<rect x="429.337" y="1636.445" style="clip-path:url(#SVGID_00000153679006813159282410000014357210493681426826_);fill:url(#SVGID_00000095333144712044935750000013332523315642462380_);" width="628.917" height="363.559"/>
	</g>
	<path style="fill:#4A1877;" d="M1610.611,1159.803l-617.099,806.491c-21.077,1.961-33.686-7.592-37.377-28.46l617.085-806.492
		C1594.311,1129.393,1606.91,1138.946,1610.611,1159.803"/>
	<path style="fill:#4A1877;" d="M896.635,1537.568l-353.842,462.437h-59.144l375.605-490.897
		C880.33,1507.146,892.944,1516.699,896.635,1537.568"/>
	<path style="fill-rule:evenodd;clip-rule:evenodd;fill:#114FEE;" d="M1007.086,1565.798c48.111,0,87.112,39.002,87.112,87.115
		c0,48.106-39.001,87.119-87.112,87.119c-48.104,0-87.117-39.014-87.117-87.119C919.969,1604.8,958.981,1565.798,1007.086,1565.798"
		/>
	<path style="fill-rule:evenodd;clip-rule:evenodd;fill:#114FEE;" d="M1134.227,1417.468c48.1,0,87.116,38.992,87.116,87.116
		c0,48.104-39.016,87.118-87.116,87.118c-48.134,0-87.117-39.014-87.117-87.118
		C1047.11,1456.46,1086.093,1417.468,1134.227,1417.468"/>
	<path style="fill-rule:evenodd;clip-rule:evenodd;fill:#114FEE;" d="M1261.334,1269.117c48.137,0,87.117,39.014,87.117,87.119
		c0,48.124-38.98,87.119-87.117,87.119c-48.1,0-87.112-38.995-87.112-87.119C1174.221,1308.131,1213.234,1269.117,1261.334,1269.117
		"/>
	<path style="fill-rule:evenodd;clip-rule:evenodd;fill:#114FEE;" d="M1388.479,1120.8c48.1,0,87.112,39.002,87.112,87.107
		c0,48.113-39.013,87.119-87.112,87.119c-48.116,0-87.117-39.006-87.117-87.119C1301.362,1159.803,1340.364,1120.8,1388.479,1120.8"
		/>
	<path style="fill-rule:evenodd;clip-rule:evenodd;fill:#114FEE;" d="M1640.302,186.203c48.115,0,87.116,39.003,87.116,87.12
		c0,48.101-39.001,87.113-87.116,87.113c-48.101,0-87.114-39.013-87.114-87.113C1553.189,225.207,1592.202,186.203,1640.302,186.203
		"/>
	<polygon style="fill:#020C6A;" points="550.857,0 0,719.92 0,548.561 419.729,0 	"/>
	<path style="fill:#4A1877;" d="M375.973,0L112.991,343.695c-21.069,1.959-33.69-7.592-37.38-28.46L316.818,0H375.973z"/>
	<path style="fill:#4A1877;" d="M2604.749,1517.377l-369.268,482.627h-59.162l391.05-511.088
		C2588.448,1486.978,2601.058,1496.508,2604.749,1517.377"/>
	<g>
		<defs>
			<path id="SVGID_00000127044441129405317440000014009620550430310309_" d="M2239.402,2127.233l-97.354-127.229h-679.204
				l348.169,455.037C2119.116,2599.244,2298.039,2462.336,2239.402,2127.233"/>
		</defs>
		<clipPath id="SVGID_00000038392457929215605080000001772098855459259783_">
			<use xlink:href="#SVGID_00000127044441129405317440000014009620550430310309_"  style="overflow:visible;"/>
		</clipPath>
		
			<linearGradient id="SVGID_00000134939565025679826110000003326355490866125502_" gradientUnits="userSpaceOnUse" x1="1609.3392" y1="1875.3202" x2="2626.333" y2="3467.0237">
			<stop  offset="0" style="stop-color:#230094"/>
			<stop  offset="1" style="stop-color:#E61EFF"/>
		</linearGradient>
		
			<rect x="1462.844" y="2000.004" style="clip-path:url(#SVGID_00000038392457929215605080000001772098855459259783_);fill:url(#SVGID_00000134939565025679826110000003326355490866125502_);" width="835.196" height="599.24"/>
	</g>
	<g>
		<defs>
			<path id="SVGID_00000039113891984265909250000016015526072010473878_" d="M2220.573,2668.754l-511.701-668.75h-679.204
				l762.516,996.545C2100.282,3140.765,2279.207,3003.855,2220.573,2668.754"/>
		</defs>
		<clipPath id="SVGID_00000109008955260716750350000002339368948609735808_">
			<use xlink:href="#SVGID_00000039113891984265909250000016015526072010473878_"  style="overflow:visible;"/>
		</clipPath>
		
			<linearGradient id="SVGID_00000067229987572174174090000010216722854175997350_" gradientUnits="userSpaceOnUse" x1="985.365" y1="1868.9645" x2="2539.4912" y2="3498.228">
			<stop  offset="0" style="stop-color:#230094"/>
			<stop  offset="1" style="stop-color:#E61EFF"/>
		</linearGradient>
		
			<rect x="1029.668" y="2000.004" style="clip-path:url(#SVGID_00000109008955260716750350000002339368948609735808_);fill:url(#SVGID_00000067229987572174174090000010216722854175997350_);" width="1249.539" height="1140.761"/>
	</g>
	<g>
		<defs>
			<path id="SVGID_00000037663923320380682030000007112973457028042420_" d="M706.954,2715.847l-547.748-715.843h-79.61
				l553.602,723.517c-3.689,20.857-16.303,30.413-37.379,28.461L20.432,2000.004H0v679.589l278.553,364.046
				C586.668,3187.858,765.58,3050.948,706.954,2715.847"/>
		</defs>
		<clipPath id="SVGID_00000116952657766201696320000003349326304869126302_">
			<use xlink:href="#SVGID_00000037663923320380682030000007112973457028042420_"  style="overflow:visible;"/>
		</clipPath>
		
			<linearGradient id="SVGID_00000029019714192214946530000011771897810136175785_" gradientUnits="userSpaceOnUse" x1="439.2747" y1="2659.0618" x2="1729.6766" y2="4146.9839">
			<stop  offset="0" style="stop-color:#003780"/>
			<stop  offset="1" style="stop-color:#29C5FF"/>
		</linearGradient>
		
			<rect y="2000.004" style="clip-path:url(#SVGID_00000116952657766201696320000003349326304869126302_);fill:url(#SVGID_00000029019714192214946530000011771897810136175785_);" width="765.58" height="1187.854"/>
	</g>
	<g>
		<defs>
			<path id="SVGID_00000068645248655936024000000003552279382279084216_" d="M744.556,3399.598l-617.1-806.499
				c-21.068-1.953-33.69,7.6-37.379,28.457l617.099,806.503C728.253,3430,740.862,3420.456,744.556,3399.598 M857.629,3431.593
				L0,2310.74v887.663l429.24,560.981C737.343,3903.593,916.268,3766.695,857.629,3431.593z"/>
		</defs>
		<clipPath id="SVGID_00000115506820760013074880000008482619825037176714_">
			<use xlink:href="#SVGID_00000068645248655936024000000003552279382279084216_"  style="overflow:visible;"/>
		</clipPath>
		
			<linearGradient id="SVGID_00000122712730334222342800000016055565126887055277_" gradientUnits="userSpaceOnUse" x1="-85.4278" y1="2559.3379" x2="1241.7963" y2="3896.9805">
			<stop  offset="0" style="stop-color:#003780"/>
			<stop  offset="1" style="stop-color:#29C5FF"/>
		</linearGradient>
		
			<rect y="2310.74" style="clip-path:url(#SVGID_00000115506820760013074880000008482619825037176714_);fill:url(#SVGID_00000122712730334222342800000016055565126887055277_);" width="916.268" height="1592.852"/>
	</g>
	<path d="M700.407,3695.307l-14.132,10.821l10.809,14.129l14.14-10.817L700.407,3695.307z M678.791,3667.047l-14.139,10.822
		l10.817,14.128l14.127-10.817L678.791,3667.047z M657.165,3638.781l-14.127,10.829l10.806,14.128l14.131-10.829L657.165,3638.781z
		 M635.538,3610.521l-14.128,10.817l10.806,14.132l14.132-10.822L635.538,3610.521z M613.911,3582.261l-14.127,10.817l10.817,14.132
		l14.131-10.821L613.911,3582.261z M592.296,3553.991l-14.128,10.827l10.807,14.132l14.131-10.817L592.296,3553.991z
		 M570.669,3525.731l-14.127,10.821l10.806,14.139l14.132-10.829L570.669,3525.731z M549.046,3497.475l-14.131,10.817l10.809,14.128
		l14.139-10.817L549.046,3497.475z M527.431,3469.215l-14.142,10.817l10.821,14.132l14.127-10.821L527.431,3469.215z
		 M505.805,3440.945l-14.132,10.828l10.809,14.132l14.129-10.821L505.805,3440.945z M484.177,3412.685l-14.131,10.821l10.809,14.127
		l14.127-10.817L484.177,3412.685z M462.551,3384.425l-14.127,10.821l10.817,14.128l14.127-10.816L462.551,3384.425z
		 M440.935,3356.169l-14.127,10.817l10.806,14.129l14.129-10.817L440.935,3356.169z M419.309,3327.899l-14.127,10.817l10.806,14.139
		l14.132-10.829L419.309,3327.899z M397.682,3299.639l-14.127,10.817l10.806,14.131l14.142-10.821L397.682,3299.639z
		 M376.066,3271.379l-14.139,10.817l10.817,14.131l14.132-10.816L376.066,3271.379z M354.44,3243.108l-14.127,10.832l10.806,14.129
		l14.131-10.817L354.44,3243.108z M332.814,3214.853l-14.128,10.817l10.81,14.139l14.127-10.829L332.814,3214.853z
		 M311.191,3186.593l-14.132,10.817l10.82,14.131l14.129-10.821L311.191,3186.593z M289.575,3158.333l-14.131,10.817l10.809,14.132
		l14.127-10.822L289.575,3158.333z M267.948,3130.062l-14.132,10.829l10.81,14.132l14.127-10.829L267.948,3130.062z
		 M246.322,3101.803l-14.132,10.821L243,3126.752l14.14-10.817L246.322,3101.803z M224.683,3073.535l-14.127,10.817l10.817,14.139
		l14.132-10.817L224.683,3073.535z M203.039,3045.254l-14.132,10.817l10.829,14.142l14.131-10.821L203.039,3045.254z
		 M181.401,3016.975l-14.128,10.817l10.817,14.139l14.128-10.817L181.401,3016.975z M159.763,2988.694l-14.127,10.817l10.817,14.142
		l14.132-10.821L159.763,2988.694z M138.118,2960.416l-14.132,10.817l10.821,14.139l14.128-10.817L138.118,2960.416z
		 M116.481,2932.133l-14.128,10.817l10.817,14.143l14.128-10.821L116.481,2932.133z M94.835,2903.855l-14.132,10.818l10.828,14.139
		l14.132-10.817L94.835,2903.855z M73.197,2875.573l-14.132,10.817l10.82,14.144l14.128-10.822L73.197,2875.573z M51.56,2847.295
		l-14.128,10.817l10.817,14.139l14.128-10.817L51.56,2847.295z M29.914,2819.013l-14.132,10.817l10.822,14.142l14.127-10.821
		L29.914,2819.013z M8.277,2790.731L0,2797.07v12.138l4.965,6.495l14.128-10.828L8.277,2790.731z M722.033,3723.567l-14.132,10.817
		l10.81,14.132l14.127-10.822L722.033,3723.567z"/>
	<path style="fill:#4A1877;" d="M1584.818,3590.561L367.801,2000.004H236.683l1265.27,1653.634
		C1548.685,3657.949,1576.638,3636.787,1584.818,3590.561"/>
	<path d="M1834.358,2881.792l-14.127,10.821l10.806,14.129l14.131-10.817L1834.358,2881.792z M1812.731,2853.537l-14.128,10.817
		l10.807,14.128l14.142-10.817L1812.731,2853.537z M1791.115,2825.277l-14.139,10.817l10.817,14.131l14.132-10.821
		L1791.115,2825.277z M1769.489,2797.006l-14.127,10.817l10.809,14.142l14.127-10.828L1769.489,2797.006z M1747.866,2768.746
		l-14.132,10.821l10.81,14.129l14.127-10.817L1747.866,2768.746z M1726.24,2740.487l-14.132,10.822l10.821,14.128l14.127-10.817
		L1726.24,2740.487z M1704.624,2712.22l-14.131,10.829l10.809,14.128l14.127-10.817L1704.624,2712.22z M1682.998,2683.96
		l-14.132,10.817l10.81,14.139l14.127-10.829L1682.998,2683.96z M1661.37,2655.7l-14.127,10.817l10.806,14.132l14.139-10.821
		L1661.37,2655.7z M1639.755,2627.44l-14.139,10.817l10.817,14.132l14.127-10.817L1639.755,2627.44z M1618.129,2599.17
		l-14.128,10.832l10.806,14.128l14.132-10.829L1618.129,2599.17z M1596.502,2570.914l-14.127,10.817l10.806,14.128l14.132-10.817
		L1596.502,2570.914z M1574.875,2542.654l-14.127,10.817l10.817,14.132l14.131-10.821L1574.875,2542.654z M1553.26,2514.394
		l-14.128,10.817l10.806,14.132l14.132-10.821L1553.26,2514.394z M1531.636,2486.124l-14.131,10.821l10.809,14.139l14.128-10.829
		L1531.636,2486.124z M1510.01,2457.865l-14.131,10.821l10.809,14.127l14.139-10.816L1510.01,2457.865z M1488.395,2429.608
		l-14.143,10.817l10.822,14.129l14.127-10.817L1488.395,2429.608z M1466.768,2401.338l-14.131,10.828l10.809,14.129l14.127-10.817
		L1466.768,2401.338z M1445.142,2373.078l-14.132,10.817l10.81,14.131l14.127-10.821L1445.142,2373.078z M1423.515,2344.818
		l-14.128,10.817l10.817,14.131l14.128-10.816L1423.515,2344.818z M1401.899,2316.559l-14.127,10.821l10.806,14.129l14.132-10.817
		L1401.899,2316.559z M1380.273,2288.292l-14.127,10.827l10.806,14.129l14.131-10.829L1380.273,2288.292z M1358.635,2260.021
		l-14.139,10.817l10.827,14.142l14.132-10.821L1358.635,2260.021z M1336.99,2231.739l-14.127,10.821l10.817,14.139l14.127-10.818
		L1336.99,2231.739z M1315.352,2203.46l-14.127,10.817l10.817,14.139l14.131-10.817L1315.352,2203.46z M1293.707,2175.179
		l-14.131,10.832l10.82,14.139l14.139-10.829L1293.707,2175.179z M1272.069,2146.901l-14.127,10.828l10.817,14.139l14.127-10.828
		L1272.069,2146.901z M1250.431,2118.618l-14.139,10.829l10.828,14.142l14.131-10.829L1250.431,2118.618z M1228.786,2090.34
		l-14.131,10.829l10.82,14.139l14.127-10.829L1228.786,2090.34z M1207.148,2062.058l-14.127,10.829l10.817,14.142l14.127-10.827
		L1207.148,2062.058z M1185.503,2033.791l-14.131,10.817l10.82,14.139l14.139-10.829L1185.503,2033.791z M1163.865,2005.509
		l-14.131,10.818l10.821,14.143l14.127-10.821L1163.865,2005.509z M1137.239,2000.004l1.678,2.183l2.846-2.183H1137.239z
		 M1855.984,2910.052l-14.127,10.829l10.806,14.131l14.132-10.817L1855.984,2910.052z"/>
	<g>
		<defs>
			<path id="SVGID_00000160900928147335564610000010451416807355726008_" d="M429.337,2000.004l178.828,233.717
				c277.43,129.845,450.079,31.749,438.912-233.717H429.337z"/>
		</defs>
		<clipPath id="SVGID_00000177454964452670163240000012512657111930921364_">
			<use xlink:href="#SVGID_00000160900928147335564610000010451416807355726008_"  style="overflow:visible;"/>
		</clipPath>
		
			<linearGradient id="SVGID_00000157283516258660903820000017560911981488546461_" gradientUnits="userSpaceOnUse" x1="361.2578" y1="1688.1418" x2="1043.8407" y2="2568.9888">
			<stop  offset="0" style="stop-color:#230094"/>
			<stop  offset="1" style="stop-color:#E61EFF"/>
		</linearGradient>
		
			<rect x="429.337" y="2000.004" style="clip-path:url(#SVGID_00000177454964452670163240000012512657111930921364_);fill:url(#SVGID_00000157283516258660903820000017560911981488546461_);" width="628.907" height="363.562"/>
	</g>
	<path style="fill:#4A1877;" d="M1610.611,2840.209l-617.099-806.493c-21.065-1.953-33.686,7.592-37.377,28.457l617.085,806.491
		C1594.311,2870.619,1606.91,2861.073,1610.611,2840.209"/>
	<path style="fill:#4A1877;" d="M896.635,2462.451l-353.834-462.447h-59.163L859.255,2490.9
		C880.33,2492.854,892.944,2483.308,896.635,2462.451"/>
	<path style="fill-rule:evenodd;clip-rule:evenodd;fill:#114FEE;" d="M1007.086,2434.225c48.111,0,87.112-39.002,87.112-87.119
		c0-48.112-39.001-87.118-87.112-87.118c-48.116,0-87.117,39.006-87.117,87.118C919.969,2395.223,958.97,2434.225,1007.086,2434.225
		"/>
	<path style="fill-rule:evenodd;clip-rule:evenodd;fill:#114FEE;" d="M1134.215,2582.553c48.111,0,87.117-39.002,87.117-87.118
		c0-48.114-39.006-87.119-87.117-87.119c-48.116,0-87.117,39.006-87.117,87.119
		C1047.098,2543.551,1086.1,2582.553,1134.215,2582.553"/>
	<path style="fill-rule:evenodd;clip-rule:evenodd;fill:#114FEE;" d="M1261.345,2730.883c48.116,0,87.117-39.003,87.117-87.119
		c0-48.112-39.001-87.119-87.117-87.119c-48.111,0-87.117,39.007-87.117,87.119
		C1174.228,2691.879,1213.234,2730.883,1261.345,2730.883"/>
	<path style="fill-rule:evenodd;clip-rule:evenodd;fill:#114FEE;" d="M1388.479,2879.211c48.111,0,87.112-39.002,87.112-87.119
		c0-48.112-39.001-87.107-87.112-87.107c-48.116,0-87.117,38.994-87.117,87.107
		C1301.362,2840.209,1340.364,2879.211,1388.479,2879.211"/>
	<path style="fill-rule:evenodd;clip-rule:evenodd;fill:#114FEE;" d="M1640.302,3813.807c48.115,0,87.116-39.002,87.116-87.119
		c0-48.112-39.001-87.118-87.116-87.118c-48.111,0-87.114,39.006-87.114,87.118
		C1553.189,3774.805,1592.191,3813.807,1640.302,3813.807"/>
	<polygon style="fill:#020C6A;" points="550.846,4000 0,3280.08 0,3451.438 419.729,4000 	"/>
	<path style="fill:#4A1877;" d="M375.963,4000l-262.972-343.684c-21.069-1.954-33.69,7.599-37.38,28.456L316.808,4000H375.963z"/>
	<path style="fill:#4A1877;" d="M2604.759,2482.635l-369.289-482.63h-59.151l391.05,511.08
		C2588.455,2513.033,2601.058,2503.492,2604.759,2482.635"/>
	<g>
		<defs>
			<path id="SVGID_00000049180278285331561670000007170627865257478552_" d="M3417.599,1872.778l97.353,127.226h679.204
				l-348.168-455.034C3537.885,1400.763,3358.961,1537.675,3417.599,1872.778"/>
		</defs>
		<clipPath id="SVGID_00000121241786346529640440000013220960795148616327_">
			<use xlink:href="#SVGID_00000049180278285331561670000007170627865257478552_"  style="overflow:visible;"/>
		</clipPath>
		
			<linearGradient id="SVGID_00000103983291764253482150000006624225472350802823_" gradientUnits="userSpaceOnUse" x1="4047.6016" y1="2124.4949" x2="3030.6047" y2="533.1603">
			<stop  offset="0" style="stop-color:#230094"/>
			<stop  offset="1" style="stop-color:#E61EFF"/>
		</linearGradient>
		
			<rect x="3358.961" y="1400.763" style="clip-path:url(#SVGID_00000121241786346529640440000013220960795148616327_);fill:url(#SVGID_00000103983291764253482150000006624225472350802823_);" width="835.196" height="599.241"/>
	</g>
	<g>
		<defs>
			<path id="SVGID_00000006696319221794587070000011351924402198385299_" d="M3436.429,1331.254l511.699,668.75h679.204
				l-762.515-996.543C3556.718,859.242,3377.794,996.151,3436.429,1331.254"/>
		</defs>
		<clipPath id="SVGID_00000129189388376045784440000015218534892214398643_">
			<use xlink:href="#SVGID_00000006696319221794587070000011351924402198385299_"  style="overflow:visible;"/>
		</clipPath>
		
			<linearGradient id="SVGID_00000072988319441127917980000000124225067381386412_" gradientUnits="userSpaceOnUse" x1="4671.7393" y1="2131.1516" x2="3117.613" y2="501.8879">
			<stop  offset="0" style="stop-color:#230094"/>
			<stop  offset="1" style="stop-color:#E61EFF"/>
		</linearGradient>
		
			<rect x="3377.794" y="859.242" style="clip-path:url(#SVGID_00000129189388376045784440000015218534892214398643_);fill:url(#SVGID_00000072988319441127917980000000124225067381386412_);" width="1249.538" height="1140.762"/>
	</g>
	<g>
		<defs>
			<path id="SVGID_00000159458190448138332100000008563911761580027018_" d="M4950.047,1284.165l547.749,715.839h79.61
				l-553.604-723.517c3.69-20.857,16.303-30.41,37.38-28.457l575.387,751.974H5657v-679.59l-278.553-364.046
				C5070.343,812.154,4891.42,949.062,4950.047,1284.165"/>
		</defs>
		<clipPath id="SVGID_00000149360577041606310980000014688101733818387882_">
			<use xlink:href="#SVGID_00000159458190448138332100000008563911761580027018_"  style="overflow:visible;"/>
		</clipPath>
		
			<linearGradient id="SVGID_00000062166546827123831130000010131728896942791853_" gradientUnits="userSpaceOnUse" x1="5217.7251" y1="1340.9126" x2="3927.6919" y2="-147.387">
			<stop  offset="0" style="stop-color:#003780"/>
			<stop  offset="1" style="stop-color:#29C5FF"/>
		</linearGradient>
		
			<rect x="4891.42" y="812.154" style="clip-path:url(#SVGID_00000149360577041606310980000014688101733818387882_);fill:url(#SVGID_00000062166546827123831130000010131728896942791853_);" width="765.58" height="1187.85"/>
	</g>
	<g>
		<defs>
			<path id="SVGID_00000165935898171565613040000000415464704141631415_" d="M4912.443,600.408l617.101,806.504
				c21.067,1.949,33.69-7.604,37.379-28.461l-617.1-806.5C4928.748,570.01,4916.138,579.552,4912.443,600.408 M4799.371,568.418
				L5657,1689.271V801.608l-429.24-560.985C4919.657,96.418,4740.733,233.317,4799.371,568.418z"/>
		</defs>
		<clipPath id="SVGID_00000101796815168061013500000007408694751804157830_">
			<use xlink:href="#SVGID_00000165935898171565613040000000415464704141631415_"  style="overflow:visible;"/>
		</clipPath>
		
			<linearGradient id="SVGID_00000074442216775992001100000003181733812799305097_" gradientUnits="userSpaceOnUse" x1="5742.4111" y1="1440.5023" x2="4415.187" y2="103.2333">
			<stop  offset="0" style="stop-color:#003780"/>
			<stop  offset="1" style="stop-color:#29C5FF"/>
		</linearGradient>
		
			<rect x="4740.733" y="96.418" style="clip-path:url(#SVGID_00000101796815168061013500000007408694751804157830_);fill:url(#SVGID_00000074442216775992001100000003181733812799305097_);" width="916.267" height="1592.853"/>
	</g>
	<path d="M4956.594,304.703l14.13-10.821l-10.809-14.126l-14.139,10.816L4956.594,304.703z M4978.209,332.961l14.139-10.819
		l-10.817-14.129l-14.127,10.818L4978.209,332.961z M4999.836,361.229l14.127-10.828l-10.806-14.131l-14.132,10.832
		L4999.836,361.229z M5021.463,389.489l14.127-10.816l-10.806-14.131l-14.13,10.821L5021.463,389.489z M5043.089,417.749
		l14.128-10.821l-10.817-14.129l-14.132,10.819L5043.089,417.749z M5064.705,446.016l14.127-10.828l-10.806-14.129l-14.131,10.819
		L5064.705,446.016z M5086.332,474.276l14.127-10.816l-10.806-14.14l-14.131,10.83L5086.332,474.276z M5107.954,502.535
		l14.132-10.816l-10.81-14.131l-14.139,10.821L5107.954,502.535z M5129.57,530.795l14.142-10.816l-10.821-14.133l-14.128,10.823
		L5129.57,530.795z M5151.196,559.066l14.131-10.828l-10.809-14.133l-14.127,10.818L5151.196,559.066z M5172.823,587.326
		l14.132-10.821l-10.81-14.129l-14.127,10.819L5172.823,587.326z M5194.45,615.581l14.127-10.816l-10.817-14.129l-14.127,10.818
		L5194.45,615.581z M5216.065,643.841l14.132-10.816l-10.81-14.133l-14.127,10.823L5216.065,643.841z M5237.691,672.112
		l14.128-10.816l-10.807-14.145l-14.13,10.832L5237.691,672.112z M5259.319,700.372l14.127-10.821l-10.806-14.129l-14.143,10.818
		L5259.319,700.372z M5280.934,728.632l14.139-10.821l-10.817-14.129l-14.131,10.818L5280.934,728.632z M5302.56,756.899
		l14.128-10.828l-10.806-14.129l-14.132,10.819L5302.56,756.899z M5324.188,785.159l14.127-10.816l-10.81-14.14l-14.128,10.828
		L5324.188,785.159z M5345.81,813.418l14.131-10.819l-10.82-14.131l-14.127,10.821L5345.81,813.418z M5367.425,841.678
		l14.132-10.819l-10.811-14.131l-14.127,10.819L5367.425,841.678z M5389.053,869.949l14.13-10.832l-10.809-14.129l-14.128,10.828
		L5389.053,869.949z M5410.679,898.205l14.131-10.816L5414,873.26l-14.139,10.816L5410.679,898.205z M5432.316,926.476
		l14.127-10.819l-10.817-14.138l-14.13,10.816L5432.316,926.476z M5453.962,954.758l14.131-10.823l-10.827-14.138l-14.132,10.816
		L5453.962,954.758z M5475.6,983.035l14.127-10.817l-10.817-14.138l-14.127,10.816L5475.6,983.035z M5497.237,1011.318
		l14.128-10.821l-10.818-14.139l-14.13,10.816L5497.237,1011.318z M5518.883,1039.596l14.131-10.817l-10.821-14.139l-14.127,10.817
		L5518.883,1039.596z M5540.52,1067.878l14.128-10.822l-10.816-14.139l-14.128,10.817L5540.52,1067.878z M5562.165,1096.156
		l14.133-10.818l-10.818-14.139l-14.142,10.817L5562.165,1096.156z M5583.804,1124.438l14.131-10.821l-10.821-14.139l-14.128,10.817
		L5583.804,1124.438z M5605.44,1152.717l14.14-10.817l-10.827-14.139l-14.129,10.816L5605.44,1152.717z M5627.086,1180.998
		l14.133-10.821l-10.823-14.139l-14.126,10.821L5627.086,1180.998z M5648.725,1209.276l8.275-6.334v-12.138l-4.965-6.496
		l-14.128,10.829L5648.725,1209.276z M4934.968,276.443l14.131-10.821l-10.809-14.127l-14.128,10.816L4934.968,276.443z"/>
	<path style="fill:#4A1877;" d="M4072.183,409.451l1217.017,1590.553h131.117L4155.047,346.374
		C4108.315,342.063,4080.362,363.225,4072.183,409.451"/>
	<path d="M3822.642,1118.214l14.129-10.817l-10.806-14.128l-14.132,10.817L3822.642,1118.214z M3844.27,1146.474l14.127-10.817
		l-10.806-14.131l-14.142,10.821L3844.27,1146.474z M3865.885,1174.734l14.139-10.817l-10.817-14.132l-14.131,10.822
		L3865.885,1174.734z M3887.512,1203.005l14.127-10.822l-10.81-14.139l-14.127,10.829L3887.512,1203.005z M3909.135,1231.265
		l14.131-10.822l-10.809-14.128l-14.128,10.817L3909.135,1231.265z M3930.761,1259.52l14.131-10.817l-10.821-14.128l-14.127,10.817
		L3930.761,1259.52z M3952.376,1287.792l14.132-10.829l-10.809-14.132l-14.128,10.822L3952.376,1287.792z M3974.003,1316.051
		l14.131-10.817l-10.809-14.144l-14.127,10.832L3974.003,1316.051z M3995.63,1344.31l14.127-10.821l-10.806-14.128l-14.139,10.817
		L3995.63,1344.31z M4017.246,1372.57l14.139-10.821l-10.817-14.128l-14.128,10.817L4017.246,1372.57z M4038.872,1400.838
		l14.127-10.829l-10.806-14.128l-14.132,10.828L4038.872,1400.838z M4060.498,1429.097l14.127-10.817l-10.806-14.132l-14.131,10.821
		L4060.498,1429.097z M4082.125,1457.356l14.128-10.817l-10.817-14.131l-14.132,10.821L4082.125,1457.356z M4103.741,1485.616
		l14.127-10.817l-10.806-14.131l-14.131,10.817L4103.741,1485.616z M4125.363,1513.887l14.132-10.821l-10.811-14.139l-14.127,10.828
		L4125.363,1513.887z M4146.99,1542.144l14.132-10.817l-10.81-14.129l-14.139,10.817L4146.99,1542.144z M4168.606,1570.402
		l14.142-10.817l-10.821-14.131l-14.127,10.821L4168.606,1570.402z M4190.232,1598.673l14.132-10.829l-10.81-14.131l-14.127,10.821
		L4190.232,1598.673z M4211.858,1626.933l14.132-10.821l-10.809-14.129l-14.128,10.817L4211.858,1626.933z M4233.486,1655.193
		l14.127-10.821l-10.817-14.129l-14.127,10.817L4233.486,1655.193z M4255.101,1683.448l14.127-10.817l-10.806-14.128l-14.131,10.817
		L4255.101,1683.448z M4276.728,1711.719l14.127-10.829l-10.806-14.128l-14.132,10.829L4276.728,1711.719z M4298.366,1739.991
		l14.139-10.817l-10.829-14.144l-14.132,10.822L4298.366,1739.991z M4320.01,1768.269l14.128-10.817l-10.817-14.139l-14.128,10.818
		L4320.01,1768.269z M4341.649,1796.55l14.127-10.816l-10.817-14.143l-14.132,10.821L4341.649,1796.55z M4363.293,1824.829
		l14.132-10.829l-10.821-14.139l-14.14,10.829L4363.293,1824.829z M4384.931,1853.111l14.128-10.829l-10.817-14.142l-14.128,10.832
		L4384.931,1853.111z M4406.57,1881.389l14.139-10.828l-10.829-14.139l-14.132,10.828L4406.57,1881.389z M4428.214,1909.671
		l14.132-10.829l-10.821-14.139l-14.128,10.829L4428.214,1909.671z M4449.852,1937.949l14.128-10.829l-10.817-14.139l-14.128,10.829
		L4449.852,1937.949z M4471.498,1966.22l14.132-10.817l-10.822-14.139l-14.139,10.829L4471.498,1966.22z M4493.135,1994.502
		l14.132-10.821l-10.821-14.139l-14.128,10.817L4493.135,1994.502z M4519.762,2000.004l-1.678-2.18l-2.846,2.18H4519.762z
		 M3801.016,1089.955l14.127-10.828l-10.806-14.129l-14.131,10.817L3801.016,1089.955z"/>
	<g>
		<defs>
			<path id="SVGID_00000132055353771057226570000009358589793806442646_" d="M5227.663,2000.004l-178.827-233.719
				c-277.431-129.84-450.079-31.748-438.912,233.719H5227.663z"/>
		</defs>
		<clipPath id="SVGID_00000092418977727774751900000007203633590715056514_">
			<use xlink:href="#SVGID_00000132055353771057226570000009358589793806442646_"  style="overflow:visible;"/>
		</clipPath>
		
			<linearGradient id="SVGID_00000085235110778787562800000005557325397226153144_" gradientUnits="userSpaceOnUse" x1="5295.7373" y1="2311.6523" x2="4613.1558" y2="1431.1788">
			<stop  offset="0" style="stop-color:#230094"/>
			<stop  offset="1" style="stop-color:#E61EFF"/>
		</linearGradient>
		
			<rect x="4598.758" y="1636.445" style="clip-path:url(#SVGID_00000092418977727774751900000007203633590715056514_);fill:url(#SVGID_00000085235110778787562800000005557325397226153144_);" width="628.906" height="363.559"/>
	</g>
	<path style="fill:#4A1877;" d="M4046.389,1159.803l617.1,806.491c21.064,1.949,33.687-7.592,37.376-28.46l-617.084-806.492
		C4062.689,1129.393,4050.091,1138.934,4046.389,1159.803"/>
	<path style="fill:#4A1877;" d="M4760.366,1537.556l353.833,462.448h59.162l-375.617-490.897
		C4776.669,1507.158,4764.056,1516.699,4760.366,1537.556"/>
	<path style="fill-rule:evenodd;clip-rule:evenodd;fill:#114FEE;" d="M4649.916,1565.786c-48.111,0-87.114,39.002-87.114,87.119
		c0,48.112,39.003,87.115,87.114,87.115c48.115,0,87.116-39.002,87.116-87.115
		C4737.031,1604.789,4698.03,1565.786,4649.916,1565.786"/>
	<path style="fill-rule:evenodd;clip-rule:evenodd;fill:#114FEE;" d="M4522.786,1417.457c-48.112,0-87.117,39.003-87.117,87.119
		c0,48.112,39.005,87.116,87.117,87.116c48.114,0,87.116-39.003,87.116-87.116C4609.902,1456.46,4570.9,1417.457,4522.786,1417.457"
		/>
	<path style="fill-rule:evenodd;clip-rule:evenodd;fill:#114FEE;" d="M4395.655,1269.129c-48.115,0-87.116,39.002-87.116,87.119
		c0,48.112,39.001,87.115,87.116,87.115c48.112,0,87.117-39.002,87.117-87.115
		C4482.772,1308.131,4443.767,1269.129,4395.655,1269.129"/>
	<path style="fill-rule:evenodd;clip-rule:evenodd;fill:#114FEE;" d="M4268.522,1120.8c-48.111,0-87.112,39.002-87.112,87.118
		c0,48.112,39.001,87.108,87.112,87.108c48.115,0,87.117-38.996,87.117-87.108C4355.639,1159.803,4316.637,1120.8,4268.522,1120.8"
		/>
	<path style="fill-rule:evenodd;clip-rule:evenodd;fill:#114FEE;" d="M4016.698,186.203c-48.115,0-87.117,39.003-87.117,87.12
		c0,48.112,39.001,87.113,87.117,87.113c48.111,0,87.113-39.001,87.113-87.113C4103.811,225.207,4064.81,186.203,4016.698,186.203"
		/>
	<polygon style="fill:#020C6A;" points="5106.143,0 5657,719.932 5657,548.573 5237.26,0 	"/>
	<path style="fill:#4A1877;" d="M5281.027,0l262.982,343.695c21.069,1.948,33.69-7.604,37.381-28.46L5340.182,0H5281.027z"/>
	<path style="fill:#4A1877;" d="M3052.241,1517.377l369.289,482.627h59.152l-391.05-511.077
		C3068.545,1486.978,3055.943,1496.52,3052.241,1517.377"/>
	<g>
		<defs>
			<path id="SVGID_00000078015848660123595340000000341636316112375937_" d="M3417.599,2127.233l97.353-127.229h679.204
				l-348.168,455.037C3537.885,2599.244,3358.961,2462.336,3417.599,2127.233"/>
		</defs>
		<clipPath id="SVGID_00000083797641791421973520000013235747324845761444_">
			<use xlink:href="#SVGID_00000078015848660123595340000000341636316112375937_"  style="overflow:visible;"/>
		</clipPath>
		
			<linearGradient id="SVGID_00000180361037248348751890000011435820111930333615_" gradientUnits="userSpaceOnUse" x1="4047.6855" y1="1875.2816" x2="3030.6917" y2="3466.9851">
			<stop  offset="0" style="stop-color:#230094"/>
			<stop  offset="1" style="stop-color:#E61EFF"/>
		</linearGradient>
		
			<rect x="3358.961" y="2000.004" style="clip-path:url(#SVGID_00000083797641791421973520000013235747324845761444_);fill:url(#SVGID_00000180361037248348751890000011435820111930333615_);" width="835.196" height="599.24"/>
	</g>
	<g>
		<defs>
			<path id="SVGID_00000041991901670696726630000012175703098604870058_" d="M3436.429,2668.754l511.699-668.75h679.204
				l-762.515,996.545C3556.718,3140.765,3377.794,3003.855,3436.429,2668.754"/>
		</defs>
		<clipPath id="SVGID_00000046326658292024555230000001934568320883912108_">
			<use xlink:href="#SVGID_00000041991901670696726630000012175703098604870058_"  style="overflow:visible;"/>
		</clipPath>
		
			<linearGradient id="SVGID_00000011007270202267939730000009191206402932278703_" gradientUnits="userSpaceOnUse" x1="4671.6763" y1="1868.922" x2="3117.5391" y2="3498.1973">
			<stop  offset="0" style="stop-color:#230094"/>
			<stop  offset="1" style="stop-color:#E61EFF"/>
		</linearGradient>
		
			<rect x="3377.794" y="2000.004" style="clip-path:url(#SVGID_00000046326658292024555230000001934568320883912108_);fill:url(#SVGID_00000011007270202267939730000009191206402932278703_);" width="1249.538" height="1140.761"/>
	</g>
	<g>
		<defs>
			<path id="SVGID_00000094581313415801626150000009531609892876341412_" d="M4950.047,2715.847l547.749-715.843h79.61
				l-553.604,723.517c3.69,20.857,16.303,30.413,37.38,28.461l575.387-751.978H5657v679.589l-278.553,364.046
				C5070.343,3187.858,4891.42,3050.948,4950.047,2715.847"/>
		</defs>
		<clipPath id="SVGID_00000118380524954559902980000003068886860902923399_">
			<use xlink:href="#SVGID_00000094581313415801626150000009531609892876341412_"  style="overflow:visible;"/>
		</clipPath>
		
			<linearGradient id="SVGID_00000104687217856528466750000014387304266673724092_" gradientUnits="userSpaceOnUse" x1="5217.6353" y1="2659.1841" x2="3927.6033" y2="4147.1099">
			<stop  offset="0" style="stop-color:#003780"/>
			<stop  offset="1" style="stop-color:#29C5FF"/>
		</linearGradient>
		
			<rect x="4891.42" y="2000.004" style="clip-path:url(#SVGID_00000118380524954559902980000003068886860902923399_);fill:url(#SVGID_00000104687217856528466750000014387304266673724092_);" width="765.58" height="1187.854"/>
	</g>
	<g>
		<defs>
			<path id="SVGID_00000044174250304827052140000014136681272824357262_" d="M4912.443,3399.598l617.101-806.499
				c21.067-1.953,33.69,7.6,37.379,28.457l-617.1,806.503C4928.748,3430,4916.138,3420.456,4912.443,3399.598 M4799.371,3431.593
				L5657,2310.74v887.663l-429.24,560.981C4919.657,3903.593,4740.733,3766.695,4799.371,3431.593z"/>
		</defs>
		<clipPath id="SVGID_00000147195265037770257270000015970579481434273727_">
			<use xlink:href="#SVGID_00000044174250304827052140000014136681272824357262_"  style="overflow:visible;"/>
		</clipPath>
		
			<linearGradient id="SVGID_00000054242181993837518330000010960492538499104918_" gradientUnits="userSpaceOnUse" x1="5742.4707" y1="2559.2954" x2="4415.2471" y2="3896.9373">
			<stop  offset="0" style="stop-color:#003780"/>
			<stop  offset="1" style="stop-color:#29C5FF"/>
		</linearGradient>
		
			<rect x="4740.733" y="2310.74" style="clip-path:url(#SVGID_00000147195265037770257270000015970579481434273727_);fill:url(#SVGID_00000054242181993837518330000010960492538499104918_);" width="916.267" height="1592.852"/>
	</g>
	<path d="M4956.594,3695.307l14.13,10.821l-10.809,14.129l-14.139-10.817L4956.594,3695.307z M4978.209,3667.047l14.139,10.822
		l-10.817,14.128l-14.127-10.817L4978.209,3667.047z M4999.836,3638.781l14.127,10.829l-10.806,14.128l-14.132-10.829
		L4999.836,3638.781z M5021.463,3610.521l14.127,10.817l-10.806,14.132l-14.13-10.822L5021.463,3610.521z M5043.089,3582.261
		l14.128,10.817l-10.817,14.132l-14.132-10.821L5043.089,3582.261z M5064.705,3553.991l14.127,10.827l-10.806,14.132l-14.131-10.817
		L5064.705,3553.991z M5086.332,3525.731l14.127,10.821l-10.806,14.139l-14.131-10.829L5086.332,3525.731z M5107.954,3497.475
		l14.132,10.817l-10.81,14.128l-14.139-10.817L5107.954,3497.475z M5129.57,3469.215l14.142,10.817l-10.821,14.132l-14.128-10.821
		L5129.57,3469.215z M5151.196,3440.945l14.131,10.828l-10.809,14.132l-14.127-10.821L5151.196,3440.945z M5172.823,3412.685
		l14.132,10.821l-10.81,14.127l-14.127-10.817L5172.823,3412.685z M5194.45,3384.425l14.127,10.821l-10.817,14.128l-14.127-10.816
		L5194.45,3384.425z M5216.065,3356.169l14.132,10.817l-10.81,14.129l-14.127-10.817L5216.065,3356.169z M5237.691,3327.899
		l14.128,10.817l-10.807,14.139l-14.13-10.829L5237.691,3327.899z M5259.319,3299.639l14.127,10.817l-10.806,14.131l-14.143-10.821
		L5259.319,3299.639z M5280.934,3271.379l14.139,10.817l-10.817,14.131l-14.131-10.816L5280.934,3271.379z M5302.56,3243.108
		l14.128,10.832l-10.806,14.129l-14.132-10.817L5302.56,3243.108z M5324.188,3214.853l14.127,10.817l-10.81,14.139l-14.128-10.829
		L5324.188,3214.853z M5345.81,3186.593l14.131,10.817l-10.82,14.131l-14.127-10.821L5345.81,3186.593z M5367.425,3158.333
		l14.132,10.817l-10.811,14.132l-14.127-10.822L5367.425,3158.333z M5389.053,3130.062l14.13,10.829l-10.809,14.132l-14.128-10.829
		L5389.053,3130.062z M5410.679,3101.803l14.131,10.821L5414,3126.752l-14.139-10.817L5410.679,3101.803z M5432.316,3073.535
		l14.127,10.817l-10.817,14.139l-14.13-10.817L5432.316,3073.535z M5453.962,3045.254l14.131,10.817l-10.827,14.142l-14.132-10.821
		L5453.962,3045.254z M5475.6,3016.975l14.127,10.817l-10.817,14.139l-14.127-10.817L5475.6,3016.975z M5497.237,2988.694
		l14.128,10.817l-10.818,14.142l-14.13-10.821L5497.237,2988.694z M5518.883,2960.416l14.131,10.817l-10.821,14.139l-14.127-10.817
		L5518.883,2960.416z M5540.52,2932.133l14.128,10.817l-10.816,14.143l-14.128-10.821L5540.52,2932.133z M5562.165,2903.855
		l14.133,10.818l-10.818,14.139l-14.142-10.817L5562.165,2903.855z M5583.804,2875.573l14.131,10.817l-10.821,14.144l-14.128-10.822
		L5583.804,2875.573z M5605.44,2847.295l14.14,10.817l-10.827,14.139l-14.129-10.817L5605.44,2847.295z M5627.086,2819.013
		l14.133,10.817l-10.823,14.142l-14.126-10.821L5627.086,2819.013z M5648.725,2790.731l8.275,6.339v12.138l-4.965,6.495
		l-14.128-10.828L5648.725,2790.731z M4934.968,3723.567l14.131,10.817l-10.809,14.132l-14.128-10.822L4934.968,3723.567z"/>
	<path style="fill:#4A1877;" d="M4072.183,3590.561l1217.017-1590.557h131.117L4155.047,3653.638
		C4108.315,3657.949,4080.362,3636.787,4072.183,3590.561"/>
	<path d="M3822.642,2881.792l14.129,10.821l-10.806,14.129l-14.132-10.817L3822.642,2881.792z M3844.27,2853.537l14.127,10.817
		l-10.806,14.128l-14.142-10.817L3844.27,2853.537z M3865.885,2825.277l14.139,10.817l-10.817,14.131l-14.131-10.821
		L3865.885,2825.277z M3887.512,2797.006l14.127,10.817l-10.81,14.142l-14.127-10.828L3887.512,2797.006z M3909.135,2768.746
		l14.131,10.821l-10.809,14.129l-14.128-10.817L3909.135,2768.746z M3930.761,2740.487l14.131,10.822l-10.821,14.128l-14.127-10.817
		L3930.761,2740.487z M3952.376,2712.22l14.132,10.829l-10.809,14.128l-14.128-10.817L3952.376,2712.22z M3974.003,2683.96
		l14.131,10.817l-10.809,14.139l-14.127-10.829L3974.003,2683.96z M3995.63,2655.7l14.127,10.817l-10.806,14.132l-14.139-10.821
		L3995.63,2655.7z M4017.246,2627.44l14.139,10.817l-10.817,14.132l-14.128-10.817L4017.246,2627.44z M4038.872,2599.17
		l14.127,10.832l-10.806,14.128l-14.132-10.829L4038.872,2599.17z M4060.498,2570.914l14.127,10.817l-10.806,14.128l-14.131-10.817
		L4060.498,2570.914z M4082.125,2542.654l14.128,10.817l-10.817,14.132l-14.132-10.821L4082.125,2542.654z M4103.741,2514.394
		l14.127,10.817l-10.806,14.132l-14.131-10.821L4103.741,2514.394z M4125.363,2486.124l14.132,10.821l-10.811,14.139l-14.127-10.829
		L4125.363,2486.124z M4146.99,2457.865l14.132,10.821l-10.81,14.127l-14.139-10.816L4146.99,2457.865z M4168.606,2429.608
		l14.142,10.817l-10.821,14.129l-14.127-10.817L4168.606,2429.608z M4190.232,2401.338l14.132,10.828l-10.81,14.129l-14.127-10.817
		L4190.232,2401.338z M4211.858,2373.078l14.132,10.817l-10.809,14.131l-14.128-10.821L4211.858,2373.078z M4233.486,2344.818
		l14.127,10.817l-10.817,14.131l-14.127-10.816L4233.486,2344.818z M4255.101,2316.559l14.127,10.821l-10.806,14.129l-14.131-10.817
		L4255.101,2316.559z M4276.728,2288.292l14.127,10.827l-10.806,14.129l-14.132-10.829L4276.728,2288.292z M4298.366,2260.021
		l14.139,10.817l-10.829,14.142l-14.132-10.821L4298.366,2260.021z M4320.01,2231.739l14.128,10.821l-10.817,14.139l-14.128-10.818
		L4320.01,2231.739z M4341.649,2203.46l14.127,10.817l-10.817,14.139l-14.132-10.817L4341.649,2203.46z M4363.293,2175.179
		l14.132,10.832l-10.821,14.139l-14.14-10.829L4363.293,2175.179z M4384.931,2146.901l14.128,10.828l-10.817,14.139l-14.128-10.828
		L4384.931,2146.901z M4406.57,2118.618l14.139,10.829l-10.829,14.142l-14.132-10.829L4406.57,2118.618z M4428.214,2090.34
		l14.132,10.829l-10.821,14.139l-14.128-10.829L4428.214,2090.34z M4449.852,2062.058l14.128,10.829l-10.817,14.142l-14.128-10.827
		L4449.852,2062.058z M4471.498,2033.791l14.132,10.817l-10.822,14.139l-14.139-10.829L4471.498,2033.791z M4493.135,2005.509
		l14.132,10.818l-10.821,14.143l-14.128-10.821L4493.135,2005.509z M4519.762,2000.004l-1.678,2.183l-2.846-2.183H4519.762z
		 M3801.016,2910.052l14.127,10.829l-10.806,14.131l-14.131-10.817L3801.016,2910.052z"/>
	<g>
		<defs>
			<path id="SVGID_00000013892703265353279110000015701127701464080770_" d="M5227.663,2000.004l-178.827,233.717
				c-277.431,129.845-450.079,31.749-438.912-233.717H5227.663z"/>
		</defs>
		<clipPath id="SVGID_00000067196887556080768050000014804254795641836460_">
			<use xlink:href="#SVGID_00000013892703265353279110000015701127701464080770_"  style="overflow:visible;"/>
		</clipPath>
		
			<linearGradient id="SVGID_00000085244070565718968610000017993117691120726972_" gradientUnits="userSpaceOnUse" x1="5295.7749" y1="1688.1003" x2="4613.1929" y2="2568.9463">
			<stop  offset="0" style="stop-color:#230094"/>
			<stop  offset="1" style="stop-color:#E61EFF"/>
		</linearGradient>
		
			<rect x="4598.758" y="2000.004" style="clip-path:url(#SVGID_00000067196887556080768050000014804254795641836460_);fill:url(#SVGID_00000085244070565718968610000017993117691120726972_);" width="628.906" height="363.562"/>
	</g>
	<path style="fill:#4A1877;" d="M4046.389,2840.209l617.1-806.493c21.064-1.953,33.687,7.592,37.376,28.457l-617.084,806.491
		C4062.689,2870.619,4050.091,2861.073,4046.389,2840.209"/>
	<path style="fill:#4A1877;" d="M4760.366,2462.451l353.833-462.447h59.162L4797.745,2490.9
		C4776.669,2492.854,4764.056,2483.308,4760.366,2462.451"/>
	<path style="fill-rule:evenodd;clip-rule:evenodd;fill:#114FEE;" d="M4649.916,2434.225c-48.111,0-87.114-39.002-87.114-87.119
		c0-48.112,39.003-87.118,87.114-87.118c48.115,0,87.116,39.006,87.116,87.118
		C4737.031,2395.223,4698.03,2434.225,4649.916,2434.225"/>
	<path style="fill-rule:evenodd;clip-rule:evenodd;fill:#114FEE;" d="M4522.786,2582.553c-48.112,0-87.117-39.002-87.117-87.118
		c0-48.114,39.005-87.119,87.117-87.119c48.114,0,87.116,39.006,87.116,87.119C4609.902,2543.551,4570.9,2582.553,4522.786,2582.553
		"/>
	<path style="fill-rule:evenodd;clip-rule:evenodd;fill:#114FEE;" d="M4395.655,2730.883c-48.115,0-87.116-39.003-87.116-87.119
		c0-48.112,39.001-87.119,87.116-87.119c48.112,0,87.117,39.007,87.117,87.119
		C4482.772,2691.879,4443.767,2730.883,4395.655,2730.883"/>
	<path style="fill-rule:evenodd;clip-rule:evenodd;fill:#114FEE;" d="M4268.522,2879.211c-48.111,0-87.112-39.002-87.112-87.119
		c0-48.112,39.001-87.107,87.112-87.107c48.115,0,87.117,38.994,87.117,87.107
		C4355.639,2840.209,4316.637,2879.211,4268.522,2879.211"/>
	<path style="fill-rule:evenodd;clip-rule:evenodd;fill:#114FEE;" d="M4016.698,3813.807c-48.115,0-87.117-39.002-87.117-87.119
		c0-48.112,39.001-87.118,87.117-87.118c48.111,0,87.113,39.006,87.113,87.118
		C4103.811,3774.805,4064.81,3813.807,4016.698,3813.807"/>
	<polygon style="fill:#020C6A;" points="5106.154,4000 5657,3280.08 5657,3451.438 5237.271,4000 	"/>
	<path style="fill:#4A1877;" d="M5281.038,4000l262.971-343.684c21.069-1.954,33.69,7.599,37.381,28.456L5340.193,4000H5281.038z"/>
	<path style="fill:#4A1877;" d="M3052.241,2482.635l369.289-482.63h59.152l-391.05,511.08
		C3068.545,2513.033,3055.943,2503.492,3052.241,2482.635"/>
	<path style="fill:#0131B9;" d="M4025.555,71.141v37.593l-18.908,17.439h-40.731L4025.555,71.141z M3964.905,50.887h40.731
		l-81.59,75.287h-40.735L3964.905,50.887z M3882.3,50.887h40.731l-81.59,75.287h-40.731L3882.3,50.887z M3799.699,50.887h40.731
		l-81.593,75.287h-40.73L3799.699,50.887z M3717.094,50.887h40.731l-81.589,75.287h-40.731L3717.094,50.887z M3634.49,50.887h40.736
		l-81.593,75.287h-40.731L3634.49,50.887z M3551.89,50.887h40.731l-81.59,75.287h-40.735L3551.89,50.887z M3469.285,50.887h40.731
		l-81.59,75.287h-40.731L3469.285,50.887z M3386.684,50.887h40.731l-81.592,75.287h-40.731L3386.684,50.887z M3304.079,50.887
		h40.731l-81.589,75.287h-40.735L3304.079,50.887z M3221.475,50.887h40.736l-81.593,75.287h-40.731L3221.475,50.887z
		 M3138.875,50.887h40.731l-81.593,75.287h-40.731L3138.875,50.887z M3056.27,50.887h40.731l-81.589,75.287h-40.731L3056.27,50.887z
		 M2973.665,50.887h40.735l-81.592,75.287h-40.731L2973.665,50.887z M2891.064,50.887h40.731l-81.589,75.287h-40.735
		L2891.064,50.887z M2808.46,50.887h40.731l-81.589,75.287h-40.731L2808.46,50.887z M2725.86,50.887h40.731l-81.593,75.287h-40.743
		L2725.86,50.887z M2643.255,50.887h40.731l-81.6,75.287h-40.731L2643.255,50.887z M2560.65,50.887h40.735l-81.604,75.287h-40.731
		L2560.65,50.887z M2478.049,50.887h40.731l-81.6,75.287h-40.735L2478.049,50.887z M2395.446,50.887h40.731l-81.601,75.287h-40.731
		L2395.446,50.887z M2312.833,50.887h40.743l-81.604,75.287h-40.731L2312.833,50.887z M2230.228,50.887h40.731l-81.589,75.287
		h-40.731L2230.228,50.887z M2147.628,50.887h40.731l-81.593,75.287h-40.731L2147.628,50.887z M2065.024,50.887h40.731
		l-81.59,75.287h-40.735L2065.024,50.887z M1982.419,50.887h40.735l-81.593,75.287h-40.731L1982.419,50.887z M1899.818,50.887
		h40.731l-81.592,75.287h-40.731L1899.818,50.887z M1817.213,50.887h40.731l-81.589,75.287h-40.731L1817.213,50.887z
		 M1734.609,50.887h40.736l-81.593,75.287h-40.731L1734.609,50.887z M1631.467,50.887h61.272l-61.272,56.538V50.887z"/>
</g>
</svg>
